<svg width="18" height="17" xmlns="http://www.w3.org/2000/svg"><defs><linearGradient x1="21.422%" y1="11.956%" x2="62.213%" y2="88.543%" id="a"><stop stop-color="#B0D9FF" offset="0%"/><stop stop-color="#0256EC" offset="100%"/></linearGradient></defs><path d="M604.129 341.074l7.386 4.758c.3.192.673.192.972 0l7.386-4.753.9.58a.53.53 0 01.161.691.5.5 0 01-.162.174l-8.285 5.333a.896.896 0 01-.972 0l-8.286-5.33a.53.53 0 01-.162-.694.5.5 0 01.162-.175l.9-.584zm15.743-3.148l.9.578a.53.53 0 01.161.695.506.506 0 01-.162.175l-8.284 5.334a.896.896 0 01-.973 0l-8.285-5.331a.53.53 0 010-.87l.9-.581 7.385 4.756c.3.192.673.192.973 0l7.385-4.756zm-8.36-6.796a.976.976 0 01.974 0l8.285 4.826a.454.454 0 010 .788l-8.285 4.83a.976.976 0 01-.973 0l-8.286-4.83a.454.454 0 010-.784z" transform="translate(-603 -331)" fill="url(#a)" fill-rule="nonzero"/></svg>